<mxfile host="app.diagrams.net" agent="Mozilla/5.0 (X11; Linux x86_64; rv:132.0) Gecko/20100101 Firefox/132.0" version="26.1.0">
  <diagram name="Page-1" id="4OhSkEWQtga2SYKkGfgb">
    <mxGraphModel dx="1647" dy="865" grid="1" gridSize="10" guides="1" tooltips="1" connect="1" arrows="1" fold="1" page="1" pageScale="1" pageWidth="850" pageHeight="1100" math="0" shadow="0">
      <root>
        <mxCell id="0" />
        <mxCell id="1" parent="0" />
        <mxCell id="zI9E1_whQy-AQGJrHIf3-5" value="PeopleFiltersController" style="swimlane;fontStyle=1;align=center;verticalAlign=top;childLayout=stackLayout;horizontal=1;startSize=26;horizontalStack=0;resizeParent=1;resizeParentMax=0;resizeLast=0;collapsible=1;marginBottom=0;whiteSpace=wrap;html=1;" vertex="1" parent="1">
          <mxGeometry x="181" y="240" width="240" height="208" as="geometry" />
        </mxCell>
        <mxCell id="zI9E1_whQy-AQGJrHIf3-6" value="+ new: HTML" style="text;strokeColor=#b85450;fillColor=#f8cecc;align=left;verticalAlign=top;spacingLeft=4;spacingRight=4;overflow=hidden;rotatable=0;points=[[0,0.5],[1,0.5]];portConstraint=eastwest;whiteSpace=wrap;html=1;" vertex="1" parent="zI9E1_whQy-AQGJrHIf3-5">
          <mxGeometry y="26" width="240" height="26" as="geometry" />
        </mxCell>
        <mxCell id="zI9E1_whQy-AQGJrHIf3-8" value="+ create: HTML" style="text;strokeColor=none;fillColor=none;align=left;verticalAlign=top;spacingLeft=4;spacingRight=4;overflow=hidden;rotatable=0;points=[[0,0.5],[1,0.5]];portConstraint=eastwest;whiteSpace=wrap;html=1;" vertex="1" parent="zI9E1_whQy-AQGJrHIf3-5">
          <mxGeometry y="52" width="240" height="26" as="geometry" />
        </mxCell>
        <mxCell id="zI9E1_whQy-AQGJrHIf3-15" value="+ destroy: HTML" style="text;strokeColor=none;fillColor=none;align=left;verticalAlign=top;spacingLeft=4;spacingRight=4;overflow=hidden;rotatable=0;points=[[0,0.5],[1,0.5]];portConstraint=eastwest;whiteSpace=wrap;html=1;" vertex="1" parent="zI9E1_whQy-AQGJrHIf3-5">
          <mxGeometry y="78" width="240" height="26" as="geometry" />
        </mxCell>
        <mxCell id="zI9E1_whQy-AQGJrHIf3-18" value="- role_filter: Turbo Stream" style="text;strokeColor=#82b366;fillColor=#d5e8d4;align=left;verticalAlign=top;spacingLeft=4;spacingRight=4;overflow=hidden;rotatable=0;points=[[0,0.5],[1,0.5]];portConstraint=eastwest;whiteSpace=wrap;html=1;" vertex="1" parent="zI9E1_whQy-AQGJrHIf3-5">
          <mxGeometry y="104" width="240" height="26" as="geometry" />
        </mxCell>
        <mxCell id="zI9E1_whQy-AQGJrHIf3-19" value="- qualification_filter: Turbo Stream" style="text;strokeColor=#82b366;fillColor=#d5e8d4;align=left;verticalAlign=top;spacingLeft=4;spacingRight=4;overflow=hidden;rotatable=0;points=[[0,0.5],[1,0.5]];portConstraint=eastwest;whiteSpace=wrap;html=1;" vertex="1" parent="zI9E1_whQy-AQGJrHIf3-5">
          <mxGeometry y="130" width="240" height="26" as="geometry" />
        </mxCell>
        <mxCell id="zI9E1_whQy-AQGJrHIf3-20" value="- attributes_filter: Turbo Stream" style="text;strokeColor=#82b366;fillColor=#d5e8d4;align=left;verticalAlign=top;spacingLeft=4;spacingRight=4;overflow=hidden;rotatable=0;points=[[0,0.5],[1,0.5]];portConstraint=eastwest;whiteSpace=wrap;html=1;" vertex="1" parent="zI9E1_whQy-AQGJrHIf3-5">
          <mxGeometry y="156" width="240" height="26" as="geometry" />
        </mxCell>
        <mxCell id="zI9E1_whQy-AQGJrHIf3-21" value="- tag_filter: Turbo Stream" style="text;strokeColor=#82b366;fillColor=#d5e8d4;align=left;verticalAlign=top;spacingLeft=4;spacingRight=4;overflow=hidden;rotatable=0;points=[[0,0.5],[1,0.5]];portConstraint=eastwest;whiteSpace=wrap;html=1;" vertex="1" parent="zI9E1_whQy-AQGJrHIf3-5">
          <mxGeometry y="182" width="240" height="26" as="geometry" />
        </mxCell>
        <mxCell id="zI9E1_whQy-AQGJrHIf3-9" value="Extends" style="endArrow=block;endSize=16;endFill=0;html=1;rounded=0;exitX=0.5;exitY=0;exitDx=0;exitDy=0;" edge="1" parent="1" source="zI9E1_whQy-AQGJrHIf3-5" target="zI9E1_whQy-AQGJrHIf3-14">
          <mxGeometry width="160" relative="1" as="geometry">
            <mxPoint x="150" y="430" as="sourcePoint" />
            <mxPoint x="310" y="430" as="targetPoint" />
          </mxGeometry>
        </mxCell>
        <mxCell id="zI9E1_whQy-AQGJrHIf3-14" value="&lt;b&gt;CrudController&lt;/b&gt;" style="html=1;whiteSpace=wrap;" vertex="1" parent="1">
          <mxGeometry x="216" y="110" width="170" height="30" as="geometry" />
        </mxCell>
        <mxCell id="zI9E1_whQy-AQGJrHIf3-22" value="_filter.html.haml" style="html=1;whiteSpace=wrap;fillColor=#ffe6cc;strokeColor=#d79b00;" vertex="1" parent="1">
          <mxGeometry x="509" y="254" width="110" height="30" as="geometry" />
        </mxCell>
        <mxCell id="zI9E1_whQy-AQGJrHIf3-23" value="return" style="html=1;verticalAlign=bottom;endArrow=open;dashed=1;endSize=8;curved=0;rounded=0;exitX=1;exitY=0.5;exitDx=0;exitDy=0;" edge="1" parent="1" source="zI9E1_whQy-AQGJrHIf3-6">
          <mxGeometry relative="1" as="geometry">
            <mxPoint x="610" y="430" as="sourcePoint" />
            <mxPoint x="500" y="268" as="targetPoint" />
            <Array as="points">
              <mxPoint x="450" y="270" />
            </Array>
          </mxGeometry>
        </mxCell>
        <mxCell id="zI9E1_whQy-AQGJrHIf3-24" value="return" style="html=1;verticalAlign=bottom;endArrow=open;dashed=1;endSize=8;curved=0;rounded=0;exitX=1;exitY=0.5;exitDx=0;exitDy=0;entryX=0;entryY=0.5;entryDx=0;entryDy=0;" edge="1" parent="1" source="zI9E1_whQy-AQGJrHIf3-18" target="zI9E1_whQy-AQGJrHIf3-25">
          <mxGeometry relative="1" as="geometry">
            <mxPoint x="580" y="410" as="sourcePoint" />
            <mxPoint x="500" y="346" as="targetPoint" />
            <Array as="points">
              <mxPoint x="450" y="346" />
            </Array>
          </mxGeometry>
        </mxCell>
        <mxCell id="zI9E1_whQy-AQGJrHIf3-25" value="_role.turbo_stream.haml" style="html=1;whiteSpace=wrap;fillColor=#ffe6cc;strokeColor=#d79b00;" vertex="1" parent="1">
          <mxGeometry x="509" y="332" width="191" height="26" as="geometry" />
        </mxCell>
        <mxCell id="zI9E1_whQy-AQGJrHIf3-26" value="return" style="html=1;verticalAlign=bottom;endArrow=open;dashed=1;endSize=8;curved=0;rounded=0;exitX=1;exitY=0.5;exitDx=0;exitDy=0;entryX=0;entryY=0.5;entryDx=0;entryDy=0;" edge="1" parent="1" source="zI9E1_whQy-AQGJrHIf3-19" target="zI9E1_whQy-AQGJrHIf3-27">
          <mxGeometry relative="1" as="geometry">
            <mxPoint x="420" y="376" as="sourcePoint" />
            <mxPoint x="500" y="376" as="targetPoint" />
            <Array as="points">
              <mxPoint x="450" y="376" />
            </Array>
          </mxGeometry>
        </mxCell>
        <mxCell id="zI9E1_whQy-AQGJrHIf3-27" value="_qualification.turbo_stream.haml" style="html=1;whiteSpace=wrap;fillColor=#ffe6cc;strokeColor=#d79b00;" vertex="1" parent="1">
          <mxGeometry x="509" y="365" width="191" height="27" as="geometry" />
        </mxCell>
        <mxCell id="zI9E1_whQy-AQGJrHIf3-28" value="return" style="html=1;verticalAlign=bottom;endArrow=open;dashed=1;endSize=8;curved=0;rounded=0;entryX=0;entryY=0.5;entryDx=0;entryDy=0;" edge="1" parent="1" target="zI9E1_whQy-AQGJrHIf3-29">
          <mxGeometry relative="1" as="geometry">
            <mxPoint x="420" y="410" as="sourcePoint" />
            <mxPoint x="501" y="410" as="targetPoint" />
            <Array as="points">
              <mxPoint x="440" y="410" />
            </Array>
          </mxGeometry>
        </mxCell>
        <mxCell id="zI9E1_whQy-AQGJrHIf3-29" value="_attributes.turbo_stream.haml" style="html=1;whiteSpace=wrap;fillColor=#ffe6cc;strokeColor=#d79b00;" vertex="1" parent="1">
          <mxGeometry x="509" y="399" width="191" height="27" as="geometry" />
        </mxCell>
        <mxCell id="zI9E1_whQy-AQGJrHIf3-30" value="return" style="html=1;verticalAlign=bottom;endArrow=open;dashed=1;endSize=8;curved=0;rounded=0;exitX=1;exitY=0.5;exitDx=0;exitDy=0;entryX=0;entryY=0.5;entryDx=0;entryDy=0;" edge="1" parent="1" source="zI9E1_whQy-AQGJrHIf3-21" target="zI9E1_whQy-AQGJrHIf3-31">
          <mxGeometry relative="1" as="geometry">
            <mxPoint x="382" y="435" as="sourcePoint" />
            <mxPoint x="500" y="447" as="targetPoint" />
            <Array as="points">
              <mxPoint x="440" y="447" />
            </Array>
          </mxGeometry>
        </mxCell>
        <mxCell id="zI9E1_whQy-AQGJrHIf3-31" value="_tag.turbo_stream.haml" style="html=1;whiteSpace=wrap;fillColor=#ffe6cc;strokeColor=#d79b00;" vertex="1" parent="1">
          <mxGeometry x="510" y="434" width="190" height="27" as="geometry" />
        </mxCell>
        <mxCell id="zI9E1_whQy-AQGJrHIf3-32" value="Subscriber" style="shape=module;align=left;spacingLeft=20;align=center;verticalAlign=top;whiteSpace=wrap;html=1;" vertex="1" parent="1">
          <mxGeometry x="880" y="224.5" width="260" height="241" as="geometry" />
        </mxCell>
        <mxCell id="zI9E1_whQy-AQGJrHIf3-33" value="&lt;b&gt;BaseController&lt;/b&gt;" style="swimlane;fontStyle=0;childLayout=stackLayout;horizontal=1;startSize=26;fillColor=none;horizontalStack=0;resizeParent=1;resizeParentMax=0;resizeLast=0;collapsible=1;marginBottom=0;whiteSpace=wrap;html=1;" vertex="1" parent="1">
          <mxGeometry x="948" y="254" width="140" height="26" as="geometry" />
        </mxCell>
        <mxCell id="zI9E1_whQy-AQGJrHIf3-37" value="FilterController" style="swimlane;fontStyle=1;align=center;verticalAlign=top;childLayout=stackLayout;horizontal=1;startSize=26;horizontalStack=0;resizeParent=1;resizeParentMax=0;resizeLast=0;collapsible=1;marginBottom=0;whiteSpace=wrap;html=1;" vertex="1" parent="1">
          <mxGeometry x="928" y="340" width="180" height="78" as="geometry" />
        </mxCell>
        <mxCell id="zI9E1_whQy-AQGJrHIf3-38" value="+ update: HTML" style="text;strokeColor=none;fillColor=none;align=left;verticalAlign=top;spacingLeft=4;spacingRight=4;overflow=hidden;rotatable=0;points=[[0,0.5],[1,0.5]];portConstraint=eastwest;whiteSpace=wrap;html=1;" vertex="1" parent="zI9E1_whQy-AQGJrHIf3-37">
          <mxGeometry y="26" width="180" height="26" as="geometry" />
        </mxCell>
        <mxCell id="zI9E1_whQy-AQGJrHIf3-40" value="+ attributes_filter: Turbo Stream" style="text;strokeColor=#82b366;fillColor=#d5e8d4;align=left;verticalAlign=top;spacingLeft=4;spacingRight=4;overflow=hidden;rotatable=0;points=[[0,0.5],[1,0.5]];portConstraint=eastwest;whiteSpace=wrap;html=1;" vertex="1" parent="zI9E1_whQy-AQGJrHIf3-37">
          <mxGeometry y="52" width="180" height="26" as="geometry" />
        </mxCell>
        <mxCell id="zI9E1_whQy-AQGJrHIf3-41" value="Extends" style="endArrow=block;endSize=16;endFill=0;html=1;rounded=0;exitX=0;exitY=0.5;exitDx=0;exitDy=0;entryX=1;entryY=0.5;entryDx=0;entryDy=0;" edge="1" parent="1" source="zI9E1_whQy-AQGJrHIf3-33" target="zI9E1_whQy-AQGJrHIf3-14">
          <mxGeometry width="160" relative="1" as="geometry">
            <mxPoint x="1015" y="254" as="sourcePoint" />
            <mxPoint x="383" y="125" as="targetPoint" />
            <Array as="points">
              <mxPoint x="820" y="267" />
              <mxPoint x="820" y="125" />
            </Array>
          </mxGeometry>
        </mxCell>
        <mxCell id="zI9E1_whQy-AQGJrHIf3-42" value="Extends" style="endArrow=block;endSize=16;endFill=0;html=1;rounded=0;exitX=0.5;exitY=0;exitDx=0;exitDy=0;entryX=0.5;entryY=1;entryDx=0;entryDy=0;" edge="1" parent="1" source="zI9E1_whQy-AQGJrHIf3-37" target="zI9E1_whQy-AQGJrHIf3-33">
          <mxGeometry width="160" relative="1" as="geometry">
            <mxPoint x="310" y="239" as="sourcePoint" />
            <mxPoint x="311" y="150" as="targetPoint" />
          </mxGeometry>
        </mxCell>
        <mxCell id="zI9E1_whQy-AQGJrHIf3-44" value="return" style="html=1;verticalAlign=bottom;endArrow=open;dashed=1;endSize=8;curved=0;rounded=0;exitX=0;exitY=0.5;exitDx=0;exitDy=0;entryX=1;entryY=0.5;entryDx=0;entryDy=0;" edge="1" parent="1" source="zI9E1_whQy-AQGJrHIf3-40" target="zI9E1_whQy-AQGJrHIf3-29">
          <mxGeometry relative="1" as="geometry">
            <mxPoint x="769" y="350" as="sourcePoint" />
            <mxPoint x="710" y="413" as="targetPoint" />
            <Array as="points">
              <mxPoint x="860" y="413" />
            </Array>
          </mxGeometry>
        </mxCell>
      </root>
    </mxGraphModel>
  </diagram>
</mxfile>
